<?xml version="1.0" encoding="UTF-8"?>
<svg width="96" height="96" viewBox="0 0 96 96" fill="none" xmlns="http://www.w3.org/2000/svg">
    <defs>
        <linearGradient id="esBg" x1="14" y1="12" x2="84" y2="86" gradientUnits="userSpaceOnUse">
            <stop offset="0" stop-color="#17233A" />
            <stop offset="1" stop-color="#0B1220" />
        </linearGradient>
        <linearGradient id="esStroke" x1="18" y1="14" x2="78" y2="82" gradientUnits="userSpaceOnUse">
            <stop offset="0" stop-color="#FFF8EE" />
            <stop offset="1" stop-color="#FFB84D" />
        </linearGradient>
    </defs>
    <path d="M48 8L77 24.5V57L48 73.5L19 57V24.5L48 8Z" fill="url(#esBg)" />
    <path d="M48 10L73 24.5V54L48 68.5L23 54V24.5L48 10Z" stroke="url(#esStroke)" stroke-width="5.5" stroke-linejoin="round"/>
    <path d="M33 28H57" stroke="url(#esStroke)" stroke-width="6" stroke-linecap="round"/>
    <path d="M33 47H53" stroke="url(#esStroke)" stroke-width="6" stroke-linecap="round"/>
    <path d="M33 66H57" stroke="url(#esStroke)" stroke-width="6" stroke-linecap="round"/>
    <path d="M33 28V66" stroke="url(#esStroke)" stroke-width="6" stroke-linecap="round"/>
    <path d="M61 27C54 27 49 31 49 36.5C49 41 53 44.5 61 46.5C69 48.5 73 52.5 73 58.5C73 65.5 67 69 60 69" stroke="url(#esStroke)" stroke-width="6" stroke-linecap="round"/>
</svg>