<?xml version="1.0" encoding="UTF-8"?>
<svg width="1536" height="1024" viewBox="0 0 1536 1024" fill="none" xmlns="http://www.w3.org/2000/svg">
    <defs>
        <linearGradient id="bg" x1="102" y1="92" x2="1434" y2="930" gradientUnits="userSpaceOnUse">
            <stop offset="0" stop-color="#D8F3FF" />
            <stop offset="1" stop-color="#2589D8" />
        </linearGradient>
        <radialGradient id="glow-left" cx="0" cy="0" r="1" gradientUnits="userSpaceOnUse" gradientTransform="translate(296 388) rotate(90) scale(312 312)">
            <stop offset="0" stop-color="#D6F7FF" stop-opacity="0.72" />
            <stop offset="1" stop-color="#D6F7FF" stop-opacity="0" />
        </radialGradient>
        <radialGradient id="glow-right" cx="0" cy="0" r="1" gradientUnits="userSpaceOnUse" gradientTransform="translate(1258 246) rotate(90) scale(286 286)">
            <stop offset="0" stop-color="#75D9FF" stop-opacity="0.38" />
            <stop offset="1" stop-color="#75D9FF" stop-opacity="0" />
        </radialGradient>
        <filter id="blur-xl" x="-20%" y="-20%" width="140%" height="140%">
            <feGaussianBlur stdDeviation="72" />
        </filter>
        <filter id="shadow-xl" x="-20%" y="-20%" width="140%" height="140%">
            <feDropShadow dx="0" dy="28" stdDeviation="34" flood-color="rgba(6, 10, 20, 0.44)" />
        </filter>
        <filter id="shadow-lg" x="-20%" y="-20%" width="140%" height="140%">
            <feDropShadow dx="0" dy="18" stdDeviation="20" flood-color="rgba(6, 10, 20, 0.32)" />
        </filter>
        <filter id="shadow-md" x="-20%" y="-20%" width="140%" height="140%">
            <feDropShadow dx="0" dy="12" stdDeviation="12" flood-color="rgba(6, 10, 20, 0.22)" />
        </filter>
    </defs>
    <rect width="1536" height="1024" fill="url(#bg)" />
    <rect width="1536" height="1024" fill="white" fill-opacity="0.04" />
    <circle cx="304" cy="388" r="320" fill="url(#glow-left)" />
    <circle cx="1258" cy="246" r="286" fill="url(#glow-right)" />
    <circle cx="1286" cy="776" r="214" fill="#76C8FF" fill-opacity="0.18" filter="url(#blur-xl)" />
    <path d="M40 764C214 658 422 632 610 680C826 736 1018 732 1492 516" stroke="white" stroke-opacity="0.11" stroke-width="4" stroke-linecap="round" />
    <path d="M32 818C298 682 556 678 814 744C1036 800 1200 790 1496 628" stroke="white" stroke-opacity="0.08" stroke-width="3" stroke-linecap="round" />
    
    <g>
        <g opacity="0.22">
            <circle cx="308" cy="394" r="244" fill="white" />
            <circle cx="308" cy="394" r="174" fill="white" />
        </g>
        <g transform="translate(162 264)" filter="url(#shadow-lg)">
            <circle cx="178" cy="178" r="178" fill="#E8F5FF" fill-opacity="0.92" />
            <circle cx="178" cy="138" r="54" fill="#FFFFFF" fill-opacity="0.96" />
            <path d="M94 286C94 224 144 174 206 174H222C284 174 334 224 334 286V316H94V286Z" fill="#FFFFFF" fill-opacity="0.96" />
            <g transform="translate(220 162)">
                <circle cx="64" cy="64" r="64" fill="#11B7D8" />
                <rect x="34" y="56" width="60" height="48" rx="12" fill="white" />
                <path d="M48 56V40C48 22 62 8 80 8C98 8 112 22 112 40V56" stroke="white" stroke-width="12" stroke-linecap="round" />
            </g>
        </g>
        <g transform="translate(764 144) rotate(7 348 254)" filter="url(#shadow-xl)">
            <rect width="696" height="508" rx="34" fill="#1B2637" />
            <rect x="22" y="22" width="652" height="464" rx="26" fill="#F8FBFF" />
            <rect x="54" y="52" width="154" height="18" rx="9" fill="#122239" fill-opacity="0.16" />
            <rect x="54" y="114" width="342" height="178" rx="26" fill="#E9F3FF" />
            <rect x="420" y="114" width="204" height="24" rx="12" fill="#13243D" fill-opacity="0.18" />
            <rect x="420" y="160" width="174" height="16" rx="8" fill="#13243D" fill-opacity="0.11" />
            <rect x="420" y="198" width="154" height="16" rx="8" fill="#13243D" fill-opacity="0.11" />
            <rect x="420" y="246" width="168" height="52" rx="16" fill="#11B7D8" />
            <rect x="86" y="154" width="278" height="54" rx="16" fill="#FFFFFF" />
            <rect x="86" y="226" width="278" height="54" rx="16" fill="#FFFFFF" />
            <rect x="86" y="324" width="538" height="114" rx="26" fill="#F2F7FE" />
            <rect x="112" y="172" width="104" height="12" rx="6" fill="#122239" fill-opacity="0.18" />
            <rect x="112" y="244" width="86" height="12" rx="6" fill="#122239" fill-opacity="0.18" />
            <rect x="450" y="264" width="108" height="12" rx="6" fill="white" fill-opacity="0.78" />
        </g>
        <g transform="translate(838 624)" filter="url(#shadow-md)">
            <rect width="238" height="98" rx="18" fill="white" fill-opacity="0.88" />
            <rect x="24" y="24" width="64" height="12" rx="6" fill="#122239" fill-opacity="0.14" />
            <rect x="24" y="52" width="190" height="18" rx="9" fill="#11B7D8" />
        </g>
    </g>
    <rect y="835" width="1536" height="189" fill="#0A1423" fill-opacity="0.42" />
    <text x="54" y="944" fill="white" font-size="68" font-weight="800" font-family="Arial, Helvetica, sans-serif" letter-spacing="1.5">
        PAGINA DE LOGIN
    </text>
</svg>