<?xml version="1.0" encoding="UTF-8"?>
<svg width="1536" height="1024" viewBox="0 0 1536 1024" fill="none" xmlns="http://www.w3.org/2000/svg">
    <defs>
        <linearGradient id="bg" x1="102" y1="92" x2="1434" y2="930" gradientUnits="userSpaceOnUse">
            <stop offset="0" stop-color="#6873B1" />
            <stop offset="1" stop-color="#303562" />
        </linearGradient>
        <radialGradient id="glow-left" cx="0" cy="0" r="1" gradientUnits="userSpaceOnUse" gradientTransform="translate(296 388) rotate(90) scale(312 312)">
            <stop offset="0" stop-color="#8FA1FF" stop-opacity="0.72" />
            <stop offset="1" stop-color="#8FA1FF" stop-opacity="0" />
        </radialGradient>
        <radialGradient id="glow-right" cx="0" cy="0" r="1" gradientUnits="userSpaceOnUse" gradientTransform="translate(1258 246) rotate(90) scale(286 286)">
            <stop offset="0" stop-color="#58C2FF" stop-opacity="0.38" />
            <stop offset="1" stop-color="#58C2FF" stop-opacity="0" />
        </radialGradient>
        <filter id="blur-xl" x="-20%" y="-20%" width="140%" height="140%">
            <feGaussianBlur stdDeviation="72" />
        </filter>
        <filter id="shadow-xl" x="-20%" y="-20%" width="140%" height="140%">
            <feDropShadow dx="0" dy="28" stdDeviation="34" flood-color="rgba(6, 10, 20, 0.44)" />
        </filter>
        <filter id="shadow-lg" x="-20%" y="-20%" width="140%" height="140%">
            <feDropShadow dx="0" dy="18" stdDeviation="20" flood-color="rgba(6, 10, 20, 0.32)" />
        </filter>
        <filter id="shadow-md" x="-20%" y="-20%" width="140%" height="140%">
            <feDropShadow dx="0" dy="12" stdDeviation="12" flood-color="rgba(6, 10, 20, 0.22)" />
        </filter>
    </defs>
    <rect width="1536" height="1024" fill="url(#bg)" />
    <rect width="1536" height="1024" fill="white" fill-opacity="0.04" />
    <circle cx="304" cy="388" r="320" fill="url(#glow-left)" />
    <circle cx="1258" cy="246" r="286" fill="url(#glow-right)" />
    <circle cx="1286" cy="776" r="214" fill="#AB54C7" fill-opacity="0.18" filter="url(#blur-xl)" />
    <path d="M40 764C214 658 422 632 610 680C826 736 1018 732 1492 516" stroke="white" stroke-opacity="0.11" stroke-width="4" stroke-linecap="round" />
    <path d="M32 818C298 682 556 678 814 744C1036 800 1200 790 1496 628" stroke="white" stroke-opacity="0.08" stroke-width="3" stroke-linecap="round" />
    
    <g>
        <g opacity="0.22">
            <circle cx="304" cy="388" r="226" fill="white" />
            <circle cx="304" cy="388" r="158" fill="white" />
        </g>
        <g transform="translate(136 244)" filter="url(#shadow-lg)">
            <rect width="408" height="408" rx="38" fill="#121A2D" fill-opacity="0.9" />
            <rect x="32" y="34" width="344" height="182" rx="26" fill="#22314C" />
            <path d="M204 88L290 126L204 164L118 126L204 88Z" fill="#F141A5" fill-opacity="0.88" />
            <path d="M144 152V216C144 234 174 252 204 252C234 252 264 234 264 216V152" stroke="#D8E6FF" stroke-width="10" stroke-linecap="round" />
            <rect x="32" y="252" width="344" height="52" rx="18" fill="#1C2841" />
            <rect x="32" y="322" width="344" height="52" rx="18" fill="#1C2841" />
            <rect x="58" y="270" width="124" height="12" rx="6" fill="white" fill-opacity="0.74" />
            <rect x="58" y="340" width="142" height="12" rx="6" fill="white" fill-opacity="0.74" />
            <circle cx="316" cy="278" r="18" fill="#F141A5" />
            <circle cx="316" cy="348" r="18" fill="#36C0F5" />
        </g>
        <g transform="translate(790 152) rotate(7 340 250)" filter="url(#shadow-xl)">
            <rect width="680" height="500" rx="34" fill="#1A2135" />
            <rect x="22" y="22" width="636" height="456" rx="26" fill="#101827" />
            <rect x="58" y="58" width="184" height="18" rx="9" fill="white" fill-opacity="0.78" />
            <rect x="58" y="108" width="202" height="130" rx="24" fill="#22314D" />
            <circle cx="160" cy="174" r="38" fill="#F141A5" fill-opacity="0.76" />
            <path d="M146 156L176 174L146 192V156Z" fill="white" />
            <rect x="292" y="110" width="278" height="18" rx="9" fill="white" fill-opacity="0.16" />
            <rect x="292" y="144" width="236" height="14" rx="7" fill="white" fill-opacity="0.12" />
            <rect x="58" y="278" width="548" height="74" rx="22" fill="#1A2840" />
            <rect x="58" y="374" width="548" height="74" rx="22" fill="#1A2840" />
            <rect x="92" y="304" width="160" height="12" rx="6" fill="white" fill-opacity="0.74" />
            <rect x="92" y="400" width="178" height="12" rx="6" fill="white" fill-opacity="0.74" />
            <rect x="498" y="296" width="74" height="38" rx="14" fill="#36C0F5" />
            <rect x="492" y="392" width="80" height="38" rx="14" fill="#F141A5" />
        </g>
        <g transform="translate(780 634)" filter="url(#shadow-md)">
            <rect width="228" height="98" rx="18" fill="#111A2C" fill-opacity="0.82" />
            <rect x="24" y="24" width="72" height="12" rx="6" fill="white" fill-opacity="0.76" />
            <rect x="24" y="52" width="178" height="14" rx="7" fill="#2A4268" />
        </g>
    </g>
    <rect y="835" width="1536" height="189" fill="#0A1423" fill-opacity="0.42" />
    <text x="54" y="944" fill="white" font-size="68" font-weight="800" font-family="Arial, Helvetica, sans-serif" letter-spacing="1.5">
        PLATAFORMA LMS
    </text>
</svg>