<?xml version="1.0" encoding="UTF-8"?>
<svg width="1536" height="1024" viewBox="0 0 1536 1024" fill="none" xmlns="http://www.w3.org/2000/svg">
    <defs>
        <linearGradient id="bg" x1="102" y1="92" x2="1434" y2="930" gradientUnits="userSpaceOnUse">
            <stop offset="0" stop-color="#5B7894" />
            <stop offset="1" stop-color="#1D2A46" />
        </linearGradient>
        <radialGradient id="glow-left" cx="0" cy="0" r="1" gradientUnits="userSpaceOnUse" gradientTransform="translate(296 388) rotate(90) scale(312 312)">
            <stop offset="0" stop-color="#99C2E5" stop-opacity="0.72" />
            <stop offset="1" stop-color="#99C2E5" stop-opacity="0" />
        </radialGradient>
        <radialGradient id="glow-right" cx="0" cy="0" r="1" gradientUnits="userSpaceOnUse" gradientTransform="translate(1258 246) rotate(90) scale(286 286)">
            <stop offset="0" stop-color="#6F88C6" stop-opacity="0.38" />
            <stop offset="1" stop-color="#6F88C6" stop-opacity="0" />
        </radialGradient>
        <filter id="blur-xl" x="-20%" y="-20%" width="140%" height="140%">
            <feGaussianBlur stdDeviation="72" />
        </filter>
        <filter id="shadow-xl" x="-20%" y="-20%" width="140%" height="140%">
            <feDropShadow dx="0" dy="28" stdDeviation="34" flood-color="rgba(6, 10, 20, 0.44)" />
        </filter>
        <filter id="shadow-lg" x="-20%" y="-20%" width="140%" height="140%">
            <feDropShadow dx="0" dy="18" stdDeviation="20" flood-color="rgba(6, 10, 20, 0.32)" />
        </filter>
        <filter id="shadow-md" x="-20%" y="-20%" width="140%" height="140%">
            <feDropShadow dx="0" dy="12" stdDeviation="12" flood-color="rgba(6, 10, 20, 0.22)" />
        </filter>
    </defs>
    <rect width="1536" height="1024" fill="url(#bg)" />
    <rect width="1536" height="1024" fill="white" fill-opacity="0.04" />
    <circle cx="304" cy="388" r="320" fill="url(#glow-left)" />
    <circle cx="1258" cy="246" r="286" fill="url(#glow-right)" />
    <circle cx="1286" cy="776" r="214" fill="#4E668D" fill-opacity="0.18" filter="url(#blur-xl)" />
    <path d="M40 764C214 658 422 632 610 680C826 736 1018 732 1492 516" stroke="white" stroke-opacity="0.11" stroke-width="4" stroke-linecap="round" />
    <path d="M32 818C298 682 556 678 814 744C1036 800 1200 790 1496 628" stroke="white" stroke-opacity="0.08" stroke-width="3" stroke-linecap="round" />
    
    <g>
        <g opacity="0.22">
            <circle cx="312" cy="392" r="232" fill="white" />
            <circle cx="312" cy="392" r="164" fill="white" />
        </g>
        <g transform="translate(146 250)" filter="url(#shadow-lg)">
            <rect width="392" height="392" rx="36" fill="#F4F8FF" fill-opacity="0.92" />
            <rect x="62" y="60" width="188" height="20" rx="10" fill="#18253C" fill-opacity="0.14" />
            <rect x="62" y="124" width="266" height="64" rx="18" fill="#DDE8FA" />
            <rect x="62" y="208" width="266" height="64" rx="18" fill="#DDE8FA" />
            <rect x="62" y="292" width="266" height="64" rx="18" fill="#DDE8FA" />
            <circle cx="94" cy="156" r="18" fill="#69E0C0" />
            <path d="M86 156L92 162L104 148" stroke="#113126" stroke-width="5" stroke-linecap="round" stroke-linejoin="round" />
            <circle cx="94" cy="240" r="18" fill="#8EA1FF" />
            <circle cx="94" cy="324" r="18" fill="#E4B85B" />
            <rect x="130" y="148" width="136" height="12" rx="6" fill="#18253C" fill-opacity="0.2" />
            <rect x="130" y="232" width="156" height="12" rx="6" fill="#18253C" fill-opacity="0.2" />
            <rect x="130" y="316" width="144" height="12" rx="6" fill="#18253C" fill-opacity="0.2" />
        </g>
        <g transform="translate(800 138) rotate(8 336 252)" filter="url(#shadow-xl)">
            <rect width="672" height="504" rx="34" fill="#171F2D" />
            <rect x="24" y="24" width="624" height="456" rx="26" fill="#131D30" />
            <rect x="58" y="52" width="198" height="18" rx="9" fill="white" fill-opacity="0.78" />
            <rect x="58" y="108" width="520" height="76" rx="22" fill="#1F2B44" />
            <rect x="58" y="210" width="520" height="82" rx="24" fill="#1F2B44" />
            <rect x="58" y="312" width="520" height="82" rx="24" fill="#1F2B44" />
            <rect x="58" y="414" width="520" height="36" rx="18" fill="#1B273E" />
            <circle cx="100" cy="251" r="20" fill="#69E0C0" />
            <path d="M92 251L99 258L112 243" stroke="#163225" stroke-width="5" stroke-linecap="round" stroke-linejoin="round" />
            <circle cx="100" cy="353" r="20" fill="#8EA1FF" />
            <rect x="136" y="244" width="194" height="12" rx="6" fill="white" fill-opacity="0.8" />
            <rect x="136" y="268" width="126" height="10" rx="5" fill="white" fill-opacity="0.34" />
            <rect x="136" y="346" width="226" height="12" rx="6" fill="white" fill-opacity="0.8" />
            <rect x="136" y="370" width="156" height="10" rx="5" fill="white" fill-opacity="0.34" />
        </g>
        <g transform="translate(708 634)" filter="url(#shadow-md)">
            <rect width="228" height="92" rx="18" fill="#101B2B" fill-opacity="0.78" />
            <rect x="26" y="24" width="74" height="12" rx="6" fill="white" fill-opacity="0.78" />
            <rect x="26" y="52" width="172" height="14" rx="7" fill="#2D4265" />
        </g>
    </g>
    <rect y="835" width="1536" height="189" fill="#0A1423" fill-opacity="0.42" />
    <text x="54" y="944" fill="white" font-size="68" font-weight="800" font-family="Arial, Helvetica, sans-serif" letter-spacing="1.5">
        LISTA DE TAREFAS
    </text>
</svg>