<?xml version="1.0" encoding="UTF-8"?>
<svg width="1536" height="1024" viewBox="0 0 1536 1024" fill="none" xmlns="http://www.w3.org/2000/svg">
    <defs>
        <linearGradient id="bg" x1="102" y1="92" x2="1434" y2="930" gradientUnits="userSpaceOnUse">
            <stop offset="0" stop-color="#F8C8D0" />
            <stop offset="1" stop-color="#EE96A7" />
        </linearGradient>
        <radialGradient id="glow-left" cx="0" cy="0" r="1" gradientUnits="userSpaceOnUse" gradientTransform="translate(296 388) rotate(90) scale(312 312)">
            <stop offset="0" stop-color="#FFEAB2" stop-opacity="0.72" />
            <stop offset="1" stop-color="#FFEAB2" stop-opacity="0" />
        </radialGradient>
        <radialGradient id="glow-right" cx="0" cy="0" r="1" gradientUnits="userSpaceOnUse" gradientTransform="translate(1258 246) rotate(90) scale(286 286)">
            <stop offset="0" stop-color="#FFD37A" stop-opacity="0.38" />
            <stop offset="1" stop-color="#FFD37A" stop-opacity="0" />
        </radialGradient>
        <filter id="blur-xl" x="-20%" y="-20%" width="140%" height="140%">
            <feGaussianBlur stdDeviation="72" />
        </filter>
        <filter id="shadow-xl" x="-20%" y="-20%" width="140%" height="140%">
            <feDropShadow dx="0" dy="28" stdDeviation="34" flood-color="rgba(6, 10, 20, 0.44)" />
        </filter>
        <filter id="shadow-lg" x="-20%" y="-20%" width="140%" height="140%">
            <feDropShadow dx="0" dy="18" stdDeviation="20" flood-color="rgba(6, 10, 20, 0.32)" />
        </filter>
        <filter id="shadow-md" x="-20%" y="-20%" width="140%" height="140%">
            <feDropShadow dx="0" dy="12" stdDeviation="12" flood-color="rgba(6, 10, 20, 0.22)" />
        </filter>
    </defs>
    <rect width="1536" height="1024" fill="url(#bg)" />
    <rect width="1536" height="1024" fill="white" fill-opacity="0.04" />
    <circle cx="304" cy="388" r="320" fill="url(#glow-left)" />
    <circle cx="1258" cy="246" r="286" fill="url(#glow-right)" />
    <circle cx="1286" cy="776" r="214" fill="#FFC7D3" fill-opacity="0.18" filter="url(#blur-xl)" />
    <path d="M40 764C214 658 422 632 610 680C826 736 1018 732 1492 516" stroke="white" stroke-opacity="0.11" stroke-width="4" stroke-linecap="round" />
    <path d="M32 818C298 682 556 678 814 744C1036 800 1200 790 1496 628" stroke="white" stroke-opacity="0.08" stroke-width="3" stroke-linecap="round" />
    
    <g>
        <g opacity="0.24">
            <circle cx="304" cy="388" r="230" fill="white" />
            <circle cx="304" cy="388" r="164" fill="white" />
        </g>
        <g transform="translate(134 226)" filter="url(#shadow-lg)">
            <path d="M34 58C34 25.9675 59.9675 0 92 0H266C266 63.5127 316.487 114 380 114V316C316.487 316 266 366.487 266 430H92C92 366.487 41.5127 316 0 316V114C41.5127 114 92 63.5127 92 0Z" fill="#FFE49A" fill-opacity="0.38" />
            <path d="M86 76C86 46.1766 110.177 22 140 22H332V86C332 115.823 356.177 140 386 140H450V338H140C110.177 338 86 313.823 86 284V76Z" fill="#9AD8FF" fill-opacity="0.26" />
            <path d="M194 204C194 186.327 208.327 172 226 172H338V222C338 239.673 352.327 254 370 254H420V382H226C208.327 382 194 367.673 194 350V204Z" fill="#FFE49A" fill-opacity="0.5" />
        </g>
        <g transform="translate(726 124) rotate(7 358 260)" filter="url(#shadow-xl)">
            <rect width="716" height="520" rx="36" fill="#F3C7D2" />
            <rect x="24" y="24" width="668" height="472" rx="28" fill="#FFF8FA" />
            <rect x="52" y="52" width="172" height="18" rx="9" fill="#1D1E26" fill-opacity="0.14" />
            <rect x="52" y="106" width="580" height="208" rx="28" fill="#FFD86A" />
            <ellipse cx="406" cy="210" rx="162" ry="84" fill="#5870AF" />
            <path d="M312 200C366 154 458 156 512 192C494 246 442 290 370 294C330 276 308 244 312 200Z" fill="#FFCC13" />
            <path d="M406 144C452 156 488 186 530 228C482 254 422 262 372 250C382 214 390 184 406 144Z" fill="#1A2239" fill-opacity="0.52" />
            <rect x="52" y="346" width="164" height="76" rx="18" fill="#FFFFFF" />
            <rect x="238" y="346" width="164" height="76" rx="18" fill="#FFFFFF" />
            <rect x="424" y="346" width="208" height="76" rx="18" fill="#FFFFFF" />
        </g>
        <g transform="translate(1074 420) rotate(-7 124 240)" filter="url(#shadow-lg)">
            <rect width="248" height="480" rx="40" fill="#F6AEBE" />
            <rect x="16" y="16" width="216" height="448" rx="26" fill="#FFF9FB" />
            <rect x="42" y="58" width="72" height="10" rx="5" fill="#1D1E26" fill-opacity="0.14" />
            <rect x="42" y="102" width="174" height="82" rx="18" fill="#F7D9DE" />
            <rect x="42" y="212" width="174" height="82" rx="18" fill="#F7D9DE" />
            <rect x="42" y="322" width="174" height="82" rx="18" fill="#F7D9DE" />
        </g>
        <g transform="translate(734 632)" filter="url(#shadow-md)">
            <rect width="212" height="96" rx="18" fill="white" fill-opacity="0.88" />
            <rect x="24" y="24" width="60" height="12" rx="6" fill="#1D1E26" fill-opacity="0.12" />
            <rect x="24" y="50" width="164" height="18" rx="9" fill="#FF9BAF" />
        </g>
    </g>
    <rect y="835" width="1536" height="189" fill="#0A1423" fill-opacity="0.42" />
    <text x="54" y="944" fill="white" font-size="68" font-weight="800" font-family="Arial, Helvetica, sans-serif" letter-spacing="1.5">
        E-COMMERCE
    </text>
</svg>