<?xml version="1.0" encoding="UTF-8"?>
<svg width="1536" height="1024" viewBox="0 0 1536 1024" fill="none" xmlns="http://www.w3.org/2000/svg">
    <defs>
        <linearGradient id="bg" x1="102" y1="92" x2="1434" y2="930" gradientUnits="userSpaceOnUse">
            <stop offset="0" stop-color="#A36AF0" />
            <stop offset="1" stop-color="#0E8CC0" />
        </linearGradient>
        <radialGradient id="glow-left" cx="0" cy="0" r="1" gradientUnits="userSpaceOnUse" gradientTransform="translate(296 388) rotate(90) scale(312 312)">
            <stop offset="0" stop-color="#D2B0FF" stop-opacity="0.72" />
            <stop offset="1" stop-color="#D2B0FF" stop-opacity="0" />
        </radialGradient>
        <radialGradient id="glow-right" cx="0" cy="0" r="1" gradientUnits="userSpaceOnUse" gradientTransform="translate(1258 246) rotate(90) scale(286 286)">
            <stop offset="0" stop-color="#65D0FF" stop-opacity="0.38" />
            <stop offset="1" stop-color="#65D0FF" stop-opacity="0" />
        </radialGradient>
        <filter id="blur-xl" x="-20%" y="-20%" width="140%" height="140%">
            <feGaussianBlur stdDeviation="72" />
        </filter>
        <filter id="shadow-xl" x="-20%" y="-20%" width="140%" height="140%">
            <feDropShadow dx="0" dy="28" stdDeviation="34" flood-color="rgba(6, 10, 20, 0.44)" />
        </filter>
        <filter id="shadow-lg" x="-20%" y="-20%" width="140%" height="140%">
            <feDropShadow dx="0" dy="18" stdDeviation="20" flood-color="rgba(6, 10, 20, 0.32)" />
        </filter>
        <filter id="shadow-md" x="-20%" y="-20%" width="140%" height="140%">
            <feDropShadow dx="0" dy="12" stdDeviation="12" flood-color="rgba(6, 10, 20, 0.22)" />
        </filter>
    </defs>
    <rect width="1536" height="1024" fill="url(#bg)" />
    <rect width="1536" height="1024" fill="white" fill-opacity="0.04" />
    <circle cx="304" cy="388" r="320" fill="url(#glow-left)" />
    <circle cx="1258" cy="246" r="286" fill="url(#glow-right)" />
    <circle cx="1286" cy="776" r="214" fill="#7D5AF0" fill-opacity="0.18" filter="url(#blur-xl)" />
    <path d="M40 764C214 658 422 632 610 680C826 736 1018 732 1492 516" stroke="white" stroke-opacity="0.11" stroke-width="4" stroke-linecap="round" />
    <path d="M32 818C298 682 556 678 814 744C1036 800 1200 790 1496 628" stroke="white" stroke-opacity="0.08" stroke-width="3" stroke-linecap="round" />
    
    <g>
        <g opacity="0.24">
            <circle cx="302" cy="384" r="214" fill="white" />
            <circle cx="302" cy="384" r="152" fill="white" />
        </g>
        <g transform="translate(134 246)" filter="url(#shadow-lg)">
            <rect width="420" height="420" rx="40" fill="#17213A" fill-opacity="0.9" />
            <rect x="30" y="32" width="360" height="228" rx="26" fill="#243354" />
            <circle cx="150" cy="146" r="68" fill="#7C3AED" fill-opacity="0.7" />
            <circle cx="244" cy="162" r="82" fill="#38BDF8" fill-opacity="0.56" />
            <rect x="40" y="288" width="180" height="18" rx="9" fill="white" fill-opacity="0.8" />
            <rect x="40" y="326" width="222" height="14" rx="7" fill="white" fill-opacity="0.28" />
            <rect x="40" y="362" width="128" height="16" rx="8" fill="#8B5CF6" />
        </g>
        <g transform="translate(764 156) rotate(6 350 248)" filter="url(#shadow-xl)">
            <rect width="700" height="496" rx="34" fill="#1A2237" />
            <rect x="24" y="24" width="652" height="448" rx="26" fill="url(#bg)" />
            <rect x="60" y="60" width="214" height="18" rx="9" fill="white" fill-opacity="0.74" />
            <rect x="60" y="112" width="246" height="16" rx="8" fill="white" fill-opacity="0.22" />
            <rect x="60" y="148" width="224" height="16" rx="8" fill="white" fill-opacity="0.22" />
            <rect x="60" y="210" width="176" height="54" rx="16" fill="#18253B" fill-opacity="0.36" />
            <rect x="354" y="92" width="252" height="184" rx="26" fill="#273659" fill-opacity="0.64" />
            <circle cx="480" cy="184" r="54" fill="#38BDF8" fill-opacity="0.64" />
            <path d="M462 164L496 184L462 204L470 184L462 164Z" fill="white" fill-opacity="0.82" />
            <rect x="354" y="302" width="118" height="112" rx="22" fill="#23314F" />
            <rect x="488" y="302" width="118" height="112" rx="22" fill="#244A64" />
            <rect x="382" y="332" width="64" height="10" rx="5" fill="white" fill-opacity="0.68" />
            <rect x="516" y="332" width="64" height="10" rx="5" fill="white" fill-opacity="0.68" />
        </g>
        <g transform="translate(822 626)" filter="url(#shadow-md)">
            <rect width="214" height="94" rx="18" fill="white" fill-opacity="0.84" />
            <rect x="26" y="24" width="64" height="12" rx="6" fill="#17213A" fill-opacity="0.16" />
            <rect x="26" y="52" width="118" height="18" rx="9" fill="#8B5CF6" />
        </g>
    </g>
    <rect y="835" width="1536" height="189" fill="#0A1423" fill-opacity="0.42" />
    <text x="54" y="944" fill="white" font-size="68" font-weight="800" font-family="Arial, Helvetica, sans-serif" letter-spacing="1.5">
        MARKETPLACE DE NFT
    </text>
</svg>